<svg width="166" height="71" viewBox="0 0 166 71" fill="none" xmlns="http://www.w3.org/2000/svg">
<mask id="mask0_925_3597" style="mask-type:alpha" maskUnits="userSpaceOnUse" x="0" y="0" width="166" height="64">
<path fill-rule="evenodd" clip-rule="evenodd" d="M0.970703 31.729C0.970703 14.6182 37.4685 0.970703 82.9994 0.970703C128.231 0.970703 165.029 14.7685 165.029 31.729C165.029 48.6894 128.231 62.4885 82.9994 62.4885C37.7693 62.4885 0.970703 48.7356 0.970703 31.729ZM7.15834 31.7398C7.15834 17.5761 41.1111 6.00133 82.9981 6.00133C124.885 6.00133 158.835 17.5761 158.835 31.7398C158.835 45.9045 124.885 57.4802 82.9981 57.4802C41.1111 57.4802 7.15834 45.9045 7.15834 31.7398ZM4.39455 31.7398C4.39455 47.2442 39.5862 59.8128 82.9981 59.8128C126.406 59.8128 161.596 47.2442 161.596 31.7398C161.596 16.233 126.406 3.66656 82.9981 3.66656C39.5862 3.66656 4.39455 16.233 4.39455 31.7398Z" fill="white"/>
</mask>
<g mask="url(#mask0_925_3597)">
<rect y="-35" width="166" height="134" fill="#2B5AA9"/>
<path d="M115.31 38.2444C115.332 38.3853 115.517 38.5203 115.696 38.5841C115.762 38.6061 115.794 38.6502 115.725 38.7999C115.215 39.8946 114.745 40.5258 114.105 41.4771C113.516 42.356 112.852 43.0417 112.049 43.7014C110.837 44.7039 109.155 45.7953 107.764 45.0617C107.146 44.741 106.879 43.8762 106.891 43.1762C106.92 41.2076 107.796 39.1866 109.413 37.2003C111.384 34.7732 113.564 33.5143 114.994 34.2024C116.474 34.9083 116.002 36.6216 115.339 37.9664C115.288 38.0706 115.288 38.1586 115.31 38.2438L115.31 38.2444ZM131.19 22.9051C131.296 22.7173 131.184 22.5801 130.947 22.5801C129.711 22.5801 128.089 22.5829 126.801 22.5829C126.495 22.5829 126.336 22.6195 126.192 22.9057C125.716 23.8164 119.923 32.4987 118.845 34.1847C118.663 34.4415 118.441 34.4055 118.416 34.1113C118.306 33.1099 117.441 31.9588 116.079 31.408C115.04 30.9868 114.025 30.9104 112.97 31.0506C111.064 31.3067 109.367 32.3118 107.875 33.4454C105.625 35.1553 103.684 37.3717 101.179 39.0093C99.8117 39.9008 97.9388 40.6783 96.6856 39.5177C95.5515 38.4662 95.6796 36.1309 97.4149 34.3246C97.5976 34.1353 97.8169 34.2951 97.7825 34.4632C97.6188 35.28 97.8191 36.0924 98.4399 36.662C99.1969 37.3407 100.28 37.4173 101.208 36.9643C102.302 36.4221 102.945 35.3751 103.132 34.1869C103.422 32.3436 102.003 30.7179 100.228 30.5874C98.7857 30.4862 97.4025 30.988 96.0548 32.1003C95.3791 32.6609 94.9954 33.075 94.411 33.9061C94.2686 34.1108 94.0499 34.1312 94.0565 33.8289C94.1225 31.469 93.1474 30.1412 91.1964 30.0979C89.6819 30.0612 88.0641 30.8834 86.803 31.8888C85.4206 32.999 84.2118 34.4703 82.9159 35.8528C82.7545 36.023 82.6143 36.0149 82.5688 35.6847C82.5322 34.1211 82.1367 32.6066 81.4131 31.5311C81.157 31.1569 80.618 30.9719 80.1651 31.2243C79.956 31.3388 79.2287 31.6734 78.6989 32.0999C78.4362 32.3163 78.3335 32.6297 78.4501 33.0312C79.1487 35.3673 78.9953 38.0233 78.0473 40.2665C77.177 42.3211 75.4858 44.1741 73.4978 44.8012C72.1882 45.2165 70.8269 45.0133 69.9845 43.8523C68.8275 42.25 69.2947 39.4633 71.0194 37.1495C72.5414 35.112 74.743 33.8178 76.9389 32.9844C77.1972 32.8846 77.2508 32.7188 77.1774 32.4994C77.0585 32.1384 76.8677 31.6468 76.7907 31.4224C76.5889 30.886 76.0252 30.7994 75.3365 30.8742C73.7409 31.0599 72.3015 31.6066 70.8798 32.3679C67.1567 34.3616 65.2901 38.2201 64.4721 40.2844C64.0781 41.2761 63.7413 41.8947 63.3061 42.4432C62.7191 43.1809 61.9823 43.8525 60.6351 45.0357C60.5133 45.1443 60.4223 45.3702 60.525 45.5808C60.6622 45.8655 61.363 46.8551 61.5606 46.9433C61.78 47.0512 62.0346 46.8992 62.1365 46.8273C63.0792 46.1883 64.2071 45.1754 64.759 44.4884C64.9527 44.2529 65.1516 44.352 65.2543 44.7093C65.7694 46.5469 67.1181 48.0474 68.9831 48.6751C72.3968 49.8263 75.9376 48.16 78.6102 45.259C80.3088 43.4152 80.9218 42.2292 81.5729 41.4233C82.6762 40.0562 84.8527 36.9979 87.4451 35.0344C88.3957 34.3102 89.5207 33.7579 90.0864 34.1247C90.5405 34.4189 90.6873 35.1027 89.9587 36.4276C87.3156 41.254 83.4269 46.9246 82.7137 48.2997C82.5831 48.5382 82.699 48.7259 82.947 48.7259C84.3301 48.7191 85.7011 48.7226 86.9566 48.7226C87.1657 48.7152 87.259 48.6169 87.3639 48.4694C89.3923 45.2944 91.3011 42.2725 93.3471 39.1482C93.4616 38.964 93.5672 39.1041 93.5716 39.1848C93.6156 39.9097 93.7917 40.9011 94.2224 41.5522C94.9959 42.7558 96.0919 43.273 97.3074 43.281C98.2746 43.2956 98.764 43.1452 99.807 42.7556C100.656 42.4408 101.337 42.0277 101.86 41.6539C102.165 41.4411 102.219 41.797 102.211 41.8513C101.742 44.3718 102.321 47.3584 104.827 48.5967C107.824 50.0749 111.118 47.9972 113.013 46.1217C113.199 45.9412 113.398 45.9602 113.417 46.3498C113.461 47.066 113.781 47.9157 114.373 48.5104C115.961 50.1042 119.166 49.4725 122.382 46.9833C124.447 45.3895 126.607 43.1378 128.559 40.7534C128.632 40.661 128.685 40.5128 128.544 40.3623C128.247 40.0512 127.817 39.6954 127.522 39.4213C127.388 39.3069 127.191 39.3398 127.078 39.4253C125.077 41.3278 123.276 43.4975 120.674 45.2917C119.796 45.9044 118.397 46.3986 117.769 45.5479C117.524 45.2177 117.552 44.7612 117.791 44.1619C118.55 42.2696 130.564 23.9785 131.187 22.8997" fill="#FDFDFD"/>
<path d="M74.666 25.1129C74.7173 25.3843 74.8231 25.4372 74.9463 25.4145C75.5583 25.292 76.228 24.7886 76.6245 24.2051C76.9855 23.6761 77.1549 22.9127 76.7961 22.6068C76.4762 22.3317 75.9553 22.4094 75.5691 22.7506C74.8001 23.43 74.5666 24.394 74.6658 25.1134L74.666 25.1129ZM44.0457 48.658C39.5663 48.6874 35.6199 45.921 35.167 41.1288C34.9154 38.4732 35.666 36.1065 37.1687 34.1567C38.5022 32.4193 40.7585 30.9759 42.6684 30.6233C43.2899 30.5096 44.125 30.5793 44.4702 30.9931C45.0117 31.6234 44.856 32.3157 44.3146 32.592C42.8574 33.3359 41.1042 34.6095 40.2366 36.3486C39.533 37.7681 39.3908 39.4787 40.4656 41.1084C42.2644 43.8244 47.2788 43.899 51.9411 39.5676C53.0958 38.5075 54.1291 37.489 55.1794 36.2826C57.2329 33.9346 57.9159 33.0791 60.6455 29.2928C60.6749 29.2488 60.6895 29.1915 60.6748 29.1636C60.6528 29.1123 60.6162 29.1049 60.5348 29.0976C58.7126 29.1489 57.1238 29.6912 55.5796 30.8452C55.135 31.1695 54.495 31.124 54.2148 30.697C53.9029 30.2142 54.1268 29.5857 54.6396 29.2308C57.1237 27.5032 59.8374 27.1898 62.6086 26.7221C62.6063 26.7221 62.8009 26.7295 62.9593 26.5211C64.0969 25.0611 64.9559 23.7442 66.1686 22.2677C67.3905 20.7696 68.9688 19.394 70.1747 18.3607C71.8579 16.9133 72.9375 16.4263 74.0345 15.8293C74.3236 15.6782 73.9979 15.4977 73.9098 15.4977C67.7847 14.3465 61.418 12.8568 55.335 15.1088C51.1221 16.6809 49.2759 20.0218 50.1639 22.2541C50.7956 23.8377 52.8783 24.0951 54.8281 23.141C56.4475 22.3475 57.9461 21.0687 59.0085 19.4225C59.6028 18.5083 60.8552 19.1679 60.1785 20.7554C58.3984 24.9392 54.9978 28.2579 50.8555 28.398C47.3301 28.5125 45.0556 25.919 45.063 22.7194C45.0777 16.4087 52.103 12.2516 59.4864 11.6301C68.3781 10.8953 76.8 13.2638 85.6286 14.3347C92.3928 15.1538 98.878 15.1709 105.677 13.609C106.481 13.4344 107.045 13.9472 106.992 14.759C106.926 15.9325 106.017 17.0626 103.778 18.2839C101.231 19.6806 98.5668 20.1044 95.7843 20.1272C89.0559 20.1859 82.7884 17.5605 76.3027 16.1512C76.31 16.4352 76.3849 16.7733 76.1472 16.9526C72.5546 19.6025 69.3073 22.2934 67.1325 26.0729C67.0591 26.1602 67.0957 26.2432 67.2256 26.2343C69.1139 26.1338 70.812 26.0854 72.5749 25.9445C72.8831 25.9151 72.8948 25.8418 72.8676 25.6172C72.7113 24.3145 73.0921 22.829 74.2381 21.8071C75.4109 20.7555 76.8795 20.6359 77.853 21.3933C78.9597 22.2557 78.8617 23.8067 78.2565 24.9699C77.6401 26.1501 76.6223 26.7813 75.6454 27.0878C75.6454 27.0878 75.4399 27.1318 75.4707 27.3182C75.5074 27.6161 76.8402 28.3537 76.9541 28.5502C77.0641 28.7373 77.0055 29.0272 76.8052 29.2495C76.6643 29.4109 76.4434 29.5621 76.161 29.5569C75.9328 29.5524 75.7941 29.4733 75.5021 29.3155C74.9048 28.992 74.1584 28.46 73.6605 27.8328C73.491 27.6207 73.4044 27.6164 72.981 27.6399C71.0733 27.7499 68.0988 28.0376 66.0835 28.2892C65.5949 28.3479 65.5229 28.4411 65.4224 28.6105C62.2092 33.9092 58.7783 39.6231 55.0115 43.4486C50.9711 47.5505 47.6127 48.6304 44.0474 48.6584" fill="#FDFDFD"/>
</g>
</svg>
