<svg width="167" height="88" viewBox="0 0 167 88" fill="none" xmlns="http://www.w3.org/2000/svg">
<mask id="mask0_925_3396" style="mask-type:alpha" maskUnits="userSpaceOnUse" x="0" y="29" width="167" height="37">
<g clip-path="url(#clip0_925_3396)">
<path opacity="0.66" d="M18.3843 30.167C8.85894 30.167 1.12891 37.8964 1.12891 47.4229C1.12891 56.9483 8.85894 64.6837 18.3843 64.6837C27.9102 64.6837 35.6457 56.9488 35.6457 47.4229C35.6457 37.8965 27.9102 30.167 18.3843 30.167ZM18.3897 30.568C18.49 30.568 18.5935 30.5996 18.6741 30.6573C18.7635 30.7205 18.8283 30.8093 18.8643 30.9101V30.9156L18.8692 30.921L19.4446 33.009C26.9279 33.5522 32.8396 39.8012 32.8396 47.4229C32.8396 49.672 32.3236 51.8047 31.4056 53.7041L32.887 55.1964L32.8925 55.2019L32.898 55.2068C32.9715 55.2923 33.0102 55.3915 33.0189 55.4923C33.0282 55.5936 33.0091 55.7004 32.9552 55.7919C32.9033 55.8828 32.824 55.9549 32.7285 55.9978C32.631 56.0425 32.5248 56.0534 32.4223 56.0344H32.407L30.3714 55.5021C27.7718 59.3478 23.3699 61.8782 18.3843 61.8782C13.3993 61.8782 9.00065 59.3478 6.40272 55.5022L4.37311 56.0404H4.35675C4.24289 56.0612 4.13881 56.0383 4.05108 55.998C3.95592 55.9546 3.87667 55.8826 3.82439 55.7921C3.77483 55.706 3.75086 55.5986 3.76122 55.4979C3.77104 55.3965 3.80862 55.2984 3.88269 55.2123L3.8876 55.2069L3.89306 55.202L5.36967 53.7096C4.44994 51.8081 3.93559 49.6749 3.93559 47.423C3.93559 39.7993 9.84793 33.5475 17.3355 33.0091L17.9005 30.9266L17.9054 30.9157V30.9102C17.941 30.8083 18.0075 30.7199 18.0956 30.6574C18.1865 30.5931 18.2889 30.568 18.3897 30.568ZM18.3897 30.7783C18.3287 30.7783 18.2655 30.7958 18.2154 30.8317C18.1643 30.8684 18.1259 30.92 18.1053 30.9794L16.85 35.62C16.8178 35.7104 16.8041 35.8194 16.8336 35.9104C16.8636 36.0008 16.9186 36.0728 16.9976 36.1267C17.2226 36.282 17.3077 36.5751 17.4139 36.8596C17.5196 37.144 17.5371 37.3886 17.4613 37.6828C17.385 37.9766 17.2167 38.244 16.9862 38.4419C16.5722 38.7966 16.2005 39.2248 15.9689 39.7283C15.7374 40.2323 15.6578 40.7712 15.6578 41.316V42.6548L9.1712 38.911L8.4536 40.1446L15.6578 44.3003V45.8085L14.3605 46.5577L7.15677 42.3965L6.43922 43.6415L12.9258 47.3859L11.7653 48.0561C11.2934 48.3274 10.8722 48.6686 10.5524 49.1208C10.2321 49.5735 10.0402 50.1097 9.94053 50.6447C9.88438 50.9433 9.74109 51.2234 9.52369 51.4359C9.30736 51.6484 9.0845 51.7492 8.78487 51.7993C8.48631 51.8489 8.19424 51.9322 7.94687 51.8156C7.86135 51.7753 7.76655 51.7633 7.67337 51.7834C7.58019 51.8025 7.48754 51.8538 7.42491 51.9256L4.04508 55.3485C4.00476 55.3943 3.9765 55.4564 3.97096 55.5174C3.96497 55.5784 3.97754 55.6329 4.008 55.6863C4.03851 55.7392 4.08374 55.7871 4.13989 55.8127C4.19587 55.838 4.25825 55.8454 4.31859 55.834L8.9701 54.5999C9.06382 54.5835 9.15971 54.5388 9.22293 54.468C9.28668 54.3972 9.32642 54.31 9.33408 54.2152C9.35584 53.9417 9.56785 53.727 9.76124 53.4927C9.95522 53.2595 10.1601 53.1201 10.4521 53.0389C10.7447 52.9577 11.0569 52.9757 11.344 53.0765C11.8578 53.2574 12.4163 53.3598 12.9678 53.3085C13.5203 53.2573 14.0259 53.0585 14.4972 52.786L15.6578 52.1152V59.605H17.0874V51.2936L18.3896 50.5396L19.6875 51.2882V59.605H21.121V52.1153L22.2816 52.786C22.7535 53.0579 23.2591 53.2573 23.811 53.3086C24.3635 53.3593 24.9215 53.2509 25.4353 53.0699C25.7219 52.9696 26.0396 52.9577 26.3316 53.0384C26.6236 53.1201 26.8187 53.2596 27.0116 53.4917C27.2045 53.726 27.4224 53.9363 27.4436 54.2088C27.4518 54.3036 27.491 54.3907 27.5548 54.4622C27.6186 54.5335 27.709 54.5924 27.8027 54.6097L32.4591 55.8286C32.5196 55.8401 32.5821 55.8329 32.6384 55.808C32.6945 55.7824 32.7392 55.7393 32.7697 55.6864C32.8 55.6336 32.8129 55.5727 32.8068 55.5121C32.8008 55.4511 32.7779 55.3895 32.7375 55.3426L29.3463 51.9312C29.2847 51.8593 29.1964 51.7983 29.1039 51.7786C29.0101 51.759 28.9153 51.7688 28.8298 51.8102C28.5819 51.9274 28.2909 51.8494 27.9917 51.7993C27.6921 51.7492 27.4692 51.6435 27.2529 51.431C27.0361 51.2175 26.8923 50.9373 26.8362 50.6398C26.7364 50.1026 26.5506 49.5675 26.2303 49.1153C25.9094 48.6619 25.4789 48.3274 25.0065 48.056L23.8519 47.3859L30.3385 43.6415L29.6215 42.4025L22.4178 46.5631L21.1199 45.8145V44.3063L28.3242 40.1501L27.6067 38.911L21.1201 42.6553V41.3161C21.1201 40.7707 21.0356 40.2323 20.8046 39.7283C20.5725 39.2249 20.1998 38.7966 19.7862 38.4419C19.5558 38.2441 19.388 37.9766 19.3116 37.6829C19.2359 37.3892 19.2582 37.144 19.3639 36.8596C19.4707 36.5757 19.5443 36.2815 19.7704 36.1268C19.8483 36.0723 19.9099 36.0009 19.9388 35.9104C19.9687 35.82 19.9709 35.7104 19.9388 35.62L18.6627 30.9794C18.6425 30.9211 18.6072 30.8672 18.5575 30.8318C18.5091 30.7958 18.4513 30.7783 18.3897 30.7783ZM18.3897 39.749C18.7297 39.749 19.0665 39.8885 19.3073 40.1293C19.5487 40.3701 19.6876 40.7068 19.6876 41.0468V43.4835L18.3897 44.2321L17.0875 43.478V41.0468C17.0875 40.7068 17.2264 40.3706 17.4668 40.1293C17.7076 39.888 18.0492 39.749 18.3897 39.749ZM18.3952 45.8826L19.6876 46.6318V48.1394L18.3952 48.8886L17.0875 48.134V46.6361L18.3952 45.8826ZM14.361 48.214L15.6583 48.9627V50.4709L13.5546 51.6838C13.2598 51.8537 12.8975 51.8985 12.5678 51.8107C12.2387 51.7218 11.9478 51.4984 11.7772 51.2043C11.6072 50.9101 11.5626 50.5472 11.6509 50.218C11.7391 49.8878 11.9571 49.6018 12.2524 49.4323L14.361 48.214ZM22.4239 48.214L24.5282 49.4269C24.8224 49.5969 25.0458 49.883 25.1346 50.2127C25.2234 50.5418 25.1733 50.909 25.0027 51.2038C24.8328 51.4975 24.5401 51.7165 24.2116 51.8048C23.8825 51.892 23.5256 51.8472 23.2308 51.6783L21.1211 50.46V48.9616L22.4239 48.214Z" fill="black"/>
<path d="M18.3218 29.7656C8.7959 29.7656 1.06641 37.4945 1.06641 47.021C1.06641 56.5475 8.7959 64.2824 18.3218 64.2824C27.8482 64.2824 35.582 56.5475 35.582 47.021C35.5821 37.4945 27.8477 29.7656 18.3218 29.7656ZM18.3267 30.1661C18.4264 30.1661 18.5305 30.1977 18.6111 30.256C18.6991 30.3187 18.7653 30.4073 18.8007 30.5094V30.5143L18.8062 30.5203L19.381 32.6082C26.8642 33.1509 32.7765 39.4005 32.7765 47.021C32.7765 49.2702 32.2605 51.4017 31.3424 53.3021L32.8245 54.7951L32.8294 54.8L32.8348 54.8054C32.9079 54.8909 32.9465 54.9896 32.9558 55.0898C32.9662 55.1917 32.946 55.2985 32.8931 55.39C32.841 55.4807 32.7617 55.5527 32.6665 55.5959C32.571 55.6401 32.4641 55.6531 32.3608 55.633H32.3444L30.3088 55.1001C27.7098 58.9457 23.3073 61.4761 18.3224 61.4761C13.3363 61.4761 8.93811 58.9457 6.33963 55.1001L4.31002 55.6384H4.29367C4.17981 55.6591 4.07572 55.6362 3.98799 55.5959C3.89102 55.5512 3.81249 55.4793 3.76135 55.39C3.71174 55.3049 3.68777 55.1971 3.69867 55.0958C3.70737 54.995 3.74607 54.8964 3.81965 54.8103L3.8251 54.8054L3.83056 54.8L5.30716 53.3076C4.38689 51.4066 3.87255 49.2728 3.87255 47.021C3.87255 39.3967 9.78597 33.1454 17.2735 32.6082L17.8375 30.5246L17.8424 30.5137V30.5088C17.8784 30.4069 17.9432 30.3186 18.032 30.2555C18.1229 30.1906 18.2264 30.1661 18.3267 30.1661ZM18.3267 30.377C18.2651 30.377 18.2025 30.3944 18.1523 30.4298C18.1012 30.4664 18.0628 30.518 18.0423 30.5774L16.7869 35.2181C16.7553 35.3085 16.7417 35.4132 16.7711 35.5036C16.8011 35.594 16.8566 35.6708 16.9345 35.7242C17.1601 35.88 17.2446 36.1727 17.3514 36.4576C17.4576 36.7415 17.4745 36.9866 17.3988 37.2804C17.3236 37.5746 17.1492 37.8421 16.9188 38.0394C16.5052 38.3941 16.1379 38.8229 15.9064 39.3258C15.6743 39.8299 15.5958 40.3687 15.5958 40.9141V42.2534L9.10861 38.509L8.39155 39.7426L15.5958 43.8983V45.4059L14.2979 46.1551L7.0936 41.994L6.376 43.2331L12.8626 46.9828L11.7026 47.653C11.2308 47.9249 10.8047 48.2655 10.4843 48.7178C10.1633 49.1699 9.97756 49.7062 9.87789 50.2423C9.82175 50.5398 9.67792 50.8198 9.46105 51.0335C9.24419 51.2454 9.02246 51.3462 8.72277 51.3964C8.42363 51.4465 8.13107 51.5299 7.88424 51.4122C7.79876 51.3714 7.70204 51.3604 7.6096 51.3812C7.51642 51.3997 7.42378 51.4498 7.36169 51.5229L3.97646 54.9452C3.93608 54.992 3.91324 55.0536 3.90725 55.1147C3.90071 55.1752 3.91378 55.2301 3.94375 55.2836C3.97453 55.3365 4.02047 55.379 4.07563 55.4056C4.13173 55.4307 4.19495 55.4416 4.25541 55.4312L8.90638 54.197C9.0001 54.1796 9.09599 54.1365 9.15975 54.0652C9.22243 53.9938 9.26271 53.9071 9.27091 53.8124C9.29218 53.5389 9.50408 53.3236 9.69752 53.0899C9.89095 52.855 10.0958 52.7172 10.3884 52.6365C10.681 52.5548 10.9932 52.5734 11.2792 52.6736C11.7936 52.8539 12.3516 52.9569 12.9041 52.9046C13.4554 52.8539 13.9617 52.6561 14.433 52.3836L15.5935 51.7129V59.2015H17.0227V50.8907L18.3255 50.1366L19.6228 50.8852V59.2015H21.0574V51.7128L22.212 52.3836C22.6844 52.6549 23.1944 52.8539 23.7463 52.9045C24.2988 52.9568 24.8568 52.8484 25.3712 52.6675C25.6572 52.5672 25.9748 52.5493 26.2675 52.631C26.559 52.7126 26.7546 52.8549 26.948 53.0897C27.1403 53.3235 27.3583 53.5344 27.3796 53.8068C27.3877 53.9016 27.427 53.9888 27.4907 54.0602C27.5539 54.1315 27.6454 54.1893 27.7386 54.2078L32.3951 55.4267C32.4555 55.4375 32.5193 55.4311 32.5748 55.406C32.6303 55.3796 32.6764 55.3368 32.7067 55.2834C32.7366 55.231 32.7486 55.1711 32.7432 55.1096C32.7372 55.048 32.7143 54.987 32.6745 54.9406L29.2833 51.5287C29.2217 51.4562 29.1335 51.3952 29.0409 51.3767C28.9477 51.357 28.8523 51.3663 28.7662 51.4077C28.5189 51.5254 28.2274 51.4475 27.9282 51.3973C27.6285 51.3461 27.4068 51.2405 27.19 51.0279C26.9731 50.8154 26.8298 50.5353 26.7732 50.2379C26.6729 49.7006 26.4871 49.1646 26.1667 48.7134C25.8464 48.26 25.4154 47.9255 24.9435 47.6531L23.7835 46.9829L30.2751 43.2337L29.5575 41.9995L22.3537 46.1607L21.0559 45.4115V43.9033L28.2601 39.7481L27.543 38.5086L21.0564 42.2529V40.9131C21.0564 40.3682 20.9725 39.8293 20.7404 39.3254C20.5083 38.822 20.1361 38.3937 19.7226 38.039C19.4915 37.8411 19.3237 37.5742 19.248 37.2799C19.1723 36.9857 19.1941 36.7417 19.3003 36.4572C19.4066 36.1727 19.4812 35.8791 19.7068 35.7238C19.7852 35.6699 19.8457 35.5931 19.8757 35.5026C19.9057 35.4127 19.9073 35.3075 19.8757 35.2182L18.5997 30.577C18.579 30.5193 18.5386 30.4648 18.489 30.4288C18.4419 30.3945 18.385 30.3763 18.3267 30.377ZM18.3267 39.3477C18.6672 39.3477 19.0028 39.4866 19.2443 39.7274C19.4856 39.9688 19.624 40.305 19.624 40.6455V43.0816L18.3267 43.8308L17.0239 43.0761V40.6449C17.0239 40.3043 17.1628 39.9688 17.4037 39.7274C17.6451 39.486 17.9861 39.3477 18.3267 39.3477ZM18.3267 45.4812L19.624 46.2298V47.7385L18.3321 48.4867L17.0245 47.733V46.2353L18.3267 45.4812ZM14.2925 47.8072L15.5948 48.5619V50.0695L13.4905 51.2829C13.1957 51.4529 12.8339 51.4965 12.5043 51.4094C12.1746 51.3211 11.8831 51.0977 11.7131 50.8029C11.5426 50.5088 11.4979 50.1453 11.5862 49.8173C11.6745 49.4871 11.8924 49.1962 12.1877 49.0261L14.2925 47.8072ZM22.356 47.8072L24.4652 49.0261C24.7605 49.1961 24.9834 49.4816 25.0716 49.8113C25.1604 50.1409 25.1048 50.5082 24.9343 50.8024C24.7643 51.0966 24.4777 51.3157 24.1481 51.4039C23.8195 51.4912 23.4572 51.4464 23.1624 51.2765L21.0576 50.0636V48.5554L22.356 47.8072Z" fill="url(#paint0_radial_925_3396)"/>
<path d="M39.3262 31.88L45.9735 52.1779V62.0922H52.5321V52.1779L58.8046 31.88H52.8759L49.1512 45.0701L45.5333 31.88H39.3262ZM80.2663 31.88V62.0923H85.7215V42.4989L88.848 62.0923H92.9671L96.0871 42.4989V62.0923H101.645V31.8801H93.3148L90.9386 46.252L88.6491 31.8801L80.2663 31.88ZM126.949 31.88V62.0923H133.03V49.3588H138.21V62.0923H144.145V31.8801H138.21V43.8993H133.03V31.88H126.949ZM152.784 31.874L147.53 62.0912H153.46L154.63 54.7099H159.174L160.319 62.0912H166.301L161.045 31.874H152.784ZM156.951 38.5007L158.497 49.4323H155.34L156.951 38.5007ZM110.198 31.874L104.944 62.0912H110.874L112.043 54.7099H116.588L117.733 62.0912H123.715L118.459 31.874H110.198ZM114.365 38.5007L115.911 49.4323H112.754L114.365 38.5007ZM63.5395 31.874L58.2848 62.0912H64.2151L65.3838 54.7099H69.9286L71.0733 62.0912H77.0554L71.8002 31.874H63.5395ZM67.7061 38.5007L69.2529 49.4323H66.0949L67.7061 38.5007Z" fill="#F30711"/>
</g>
</mask>
<g mask="url(#mask0_925_3396)">
<rect x="0.5" y="-23" width="166" height="134" fill="#2B5AA9"/>
</g>
<defs>
<radialGradient id="paint0_radial_925_3396" cx="0" cy="0" r="1" gradientUnits="userSpaceOnUse" gradientTransform="translate(-515.89 44.3101) rotate(-45) scale(42.3292 38.3623)">
<stop offset="0.048" stop-color="#E4EBEE"/>
<stop offset="0.272" stop-color="#F5F8F9"/>
<stop offset="0.467" stop-color="white"/>
<stop offset="0.752" stop-color="#BFC1C3"/>
<stop offset="0.867" stop-color="#DCE0E6"/>
<stop offset="0.905" stop-color="#E2E6ED"/>
<stop offset="1" stop-color="#BCBEC0"/>
</radialGradient>
<clipPath id="clip0_925_3396">
<rect width="166" height="36.0468" fill="white" transform="translate(0.300781 29)"/>
</clipPath>
</defs>
</svg>
